<svg xmlns="http://www.w3.org/2000/svg" viewBox="0 0 1088.33 756"><defs><style>.cls-1{fill:#d6b49a;}.cls-2{fill:#020202;}.cls-3{fill:#818181;}.cls-4{fill:#191818;}.cls-5{fill:#dcdbda;}.cls-6{fill:#4ea7f1;}.cls-7{fill:#f8f3ed;}.cls-8{fill:#333;}.cls-9{fill:#f8f59c;}.cls-10{fill:#f3d2c9;}.cls-11{fill:#8bb174;}.cls-12{fill:#da4e22;}</style></defs><g id="Capa_2" data-name="Capa 2"><g id="Capa_1-2" data-name="Capa 1"><path class="cls-1" d="M513.93,459.92c-24.55-40.65-67.14-54.15-81.13-57.92a67.93,67.93,0,0,1-3.37-32.93c3.17-21.78,8.35-57.18,8.85-59.77l-105.8,41.16L224.87,386.61c2,1.69,28.7,25.54,45.08,40.24a68,68,0,0,1,18.52,27.44c-8.33,11.86-32.4,49.49-25.21,96.44,6.78,44.34,37.69,72.4,58.27,91.14a222.59,222.59,0,0,0,49.39,33.92,68.19,68.19,0,0,0,55.24,11c3.24-.75,9.46-2.34,15.28-4.14,2.57-.8,5.84-1.81,9.58-3.12l.61-.23.62-.22c3.71-1.39,6.87-2.7,9.36-3.74,5.61-2.35,11.42-5.11,14.38-6.6a68.27,68.27,0,0,0,35.36-43.83,222.52,222.52,0,0,0,16.19-57.68C531.37,539.69,537.12,498.32,513.93,459.92Z"/><path d="M410.67,689.42a69.15,69.15,0,0,1-40.2-12.91,223.17,223.17,0,0,1-49.51-34c-20.59-18.72-51.71-47-58.54-91.64-6.62-43.24,12.76-79,25.1-96.69a67.21,67.21,0,0,0-18.13-26.69c-15.95-14.31-43-38.55-45-40.21a.84.84,0,0,1-.25-.36.83.83,0,0,1-.05-.44.89.89,0,0,1,.56-.65l107.62-36.16L438,308.52a.83.83,0,0,1,.44,0,.73.73,0,0,1,.4.18.8.8,0,0,1,.29.8c-.5,2.59-5.76,38.53-8.84,59.74a67.39,67.39,0,0,0,3.16,32.11C454.25,407,492,422,514.65,459.49c23.34,38.65,17.56,80.3,13.73,107.87a223.27,223.27,0,0,1-16.23,57.83,69.12,69.12,0,0,1-35.8,44.31c-3.23,1.62-9,4.33-14.45,6.62-2.58,1.09-5.64,2.35-9.25,3.7l-.13.06-1.23.45-.13,0c-3.66,1.27-6.81,2.24-9.49,3.08-5.7,1.77-11.82,3.37-15.33,4.17A69.5,69.5,0,0,1,410.67,689.42ZM226.55,386.94c5.71,5,29.44,26.26,44,39.28A69.1,69.1,0,0,1,289.27,454a.9.9,0,0,1,0,.4.85.85,0,0,1-.15.37c-12.18,17.35-31.64,52.87-25.07,95.83,6.74,44,37.61,72.09,58,90.65A222,222,0,0,0,371.29,675l.11.07A67.42,67.42,0,0,0,426,686c3.49-.81,9.57-2.38,15.23-4.13,2.69-.82,5.86-1.82,9.54-3.11l.11,0,1-.36.11-.05c3.63-1.36,6.73-2.63,9.32-3.72,5.45-2.28,11.13-5,14.33-6.58a67.4,67.4,0,0,0,34.95-43.29.56.56,0,0,1,0-.12,221.66,221.66,0,0,0,16.13-57.45c3.8-27.33,9.54-68.63-13.5-106.77-22.47-37.21-60.17-52-80.64-57.54a.83.83,0,0,1-.34-.2.8.8,0,0,1-.22-.33,69,69,0,0,1-3.4-33.34c2.81-19.3,7.42-50.83,8.61-58.32L332.8,351.24Z"/><path class="cls-2" d="M337.38,364c58.93-21.35,104.06-46,100.79-55s-53.7,1-112.63,22.3-104.06,46-100.79,55S278.44,385.37,337.38,364Z"/><path d="M235.58,390.46c-6.07,0-10.58-1-11.61-3.87-2.24-6.17,13.7-16.39,27.46-23.9,19.08-10.41,45.3-21.84,73.83-32.18s56-18.36,77.32-22.58c15.37-3,34.16-5.38,36.39.78s-13.7,16.4-27.45,23.91c-19.09,10.4-45.3,21.83-73.84,32.17s-56,18.35-77.31,22.58C252.05,389,242.73,390.46,235.58,390.46Zm191.83-84c-5.12,0-12.85.78-24.5,3.08-21.24,4.21-48.61,12.2-77.07,22.51s-54.61,21.71-73.62,32.07C225.42,378.79,225,384.59,225.54,386s4.54,5.61,34.49-.31c21.23-4.2,48.6-12.2,77.07-22.51s54.6-21.69,73.6-32.07c26.8-14.62,27.19-20.42,26.68-21.85C437.08,308.43,435.45,306.5,427.41,306.5Z"/><path class="cls-3" d="M449.78,701.3l0,46.48c0,3.47,3.74,6.3,8.35,6.3h.17c4.61,0,8.36-2.81,8.36-6.29l.05-46c0-.3-3.9-.56-8.63-.56h-8.25"/><path class="cls-4" d="M458.25,754.92h-.18c-5.06,0-9.2-3.21-9.2-7.14l.05-47.33H458c2.3,0,4.49.06,6.17.16,2.32.15,3.34.25,3.34,1.22l0,46a6.42,6.42,0,0,1-2.81,5.12A10.69,10.69,0,0,1,458.25,754.92Zm-7.64-52.75-.05,45.64c0,3,3.36,5.45,7.51,5.46h.18a9,9,0,0,0,5.39-1.69,4.91,4.91,0,0,0,1.51-1.63,4.75,4.75,0,0,0,.6-2.14l.06-45.35a71.63,71.63,0,0,0-7.75-.32h-7.45Z"/><path class="cls-3" d="M893.16,701.3l0,46.48c0,3.47,3.74,6.3,8.35,6.3h.17c4.62,0,8.37-2.81,8.37-6.29l0-46c0-.3-3.93-.56-8.64-.56h-8.25"/><path class="cls-4" d="M901.63,754.92h-.18c-5.05,0-9.2-3.21-9.2-7.14l.06-47.33h9.08c2.33,0,4.49.06,6.15.16,2.31.15,3.33.25,3.33,1.22l0,46a6.39,6.39,0,0,1-.79,2.9,6.33,6.33,0,0,1-2,2.22A10.58,10.58,0,0,1,901.63,754.92ZM894,702.17l0,45.64c0,3,3.37,5.45,7.51,5.46h.18a9,9,0,0,0,5.39-1.69,4.78,4.78,0,0,0,2.12-3.77l.05-45.35a71.63,71.63,0,0,0-7.75-.32H894Z"/><path class="cls-5" d="M936.1,689.79H335.43a6,6,0,1,0,0,12.07H930.21a5.94,5.94,0,0,0,2.34-.48,6,6,0,0,0,2-1.34,6.21,6.21,0,0,0,1.3-2,6,6,0,0,0,.41-2.35Z"/><path d="M930.21,702.7H335.43a6.88,6.88,0,1,1,0-13.75H936.94l.15,6.73a6.81,6.81,0,0,1-.48,2.68,6.87,6.87,0,0,1-6.4,4.34ZM335.43,690.63a5.19,5.19,0,1,0,0,10.38H930.21a5.17,5.17,0,0,0,4.82-3.28,5,5,0,0,0,.36-2l-.12-5.06Z"/><path class="cls-6" d="M305.4,376.06s-21.68,82.78-18.06,117.46c2.15,20.7,1.48,55,.56,79.36a29.41,29.41,0,0,1-58.8-.73c-.15-12.35-1.56-21.74-.28-28.74,7.67-42-4.08-42.65,2.85-81q1.79-6.22,3.68-12.51C242,428.05,249.26,407.7,257,387.86c8.27-.78,17.51-3.24,27.46-5.46C292.07,380.69,299.07,378.14,305.4,376.06Z"/><path d="M258.53,602a30.38,30.38,0,0,1-30.25-29.87c-.05-4.37-.27-8.42-.46-12-.35-6.58-.65-12.27.19-16.84,3.93-21.39,2.75-32.06,1.62-42.37s-2.17-19.79,1.23-38.6v-.07c1.2-4.19,2.44-8.42,3.69-12.53,6-19.92,12.91-39.66,21.63-62.14l.19-.48.52-.06c6.43-.6,13.51-2.24,21-4,2.08-.48,4.2-1,6.35-1.45a171.13,171.13,0,0,0,17.32-5.13c1.2-.42,2.39-.81,3.56-1.19l1.46-.49-.38,1.5c-.22.82-21.6,83-18.05,117.16,2.15,20.61,1.51,54.59.59,79.47A30.13,30.13,0,0,1,258.53,602Zm-26-139.39c-3.37,18.52-2.31,28-1.21,38.07,1.12,10.43,2.32,21.22-1.63,42.85-.81,4.41-.51,10-.17,16.48.19,3.61.41,7.7.46,12.1a28.57,28.57,0,0,0,57.12.7c.91-24.83,1.55-58.72-.57-79.23-3.31-31.87,14.81-104.88,17.71-116.27l-2.11.68a169.35,169.35,0,0,1-17.49,5.17l-6.34,1.46c-7.35,1.68-14.3,3.32-20.7,4-8.62,22.23-15.43,41.8-21.4,61.54C234.94,454.29,233.7,458.47,232.51,462.64Z"/><path class="cls-6" d="M315.52,552.77c-5,0-8.68-7.25-10.11-10.1-9.87-19.55,5-53.65,10.85-65.75,5.53,12.46,19.26,46.28,9.39,65.75C324.16,545.56,320.51,552.77,315.52,552.77Z"/><path d="M315.52,553.62c-5.53,0-9.28-7.42-10.87-10.58-9.33-18.47,2.81-49.59,10.83-66.5l.78-1.68.75,1.68c7.51,16.91,18.72,48,9.37,66.48C324.78,546.2,321,553.62,315.52,553.62Zm.69-74.69c-7.86,16.95-18.77,46.11-10.07,63.35,1.34,2.64,4.88,9.65,9.37,9.65s8-7,9.37-9.65C333.6,525,323.57,495.88,316.21,478.93Z"/><path class="cls-7" d="M986.77,465.57c-62.16-53.78-139.19-41.83-150.3-39.92-106.93,17.07-193.41,56.13-206.65,105.68a307.57,307.57,0,0,0-6.57,31c-26.46-4.49-70.88-6.69-96.75,21.45l-.13.15c-7.34,8-2.19,21,8.64,22.15,6.49.67,14.28,1.33,23.07,1.75,18.25.89,57.3,29.19,81.76,48a87.61,87.61,0,0,0,59.89,29.71h.37a87.13,87.13,0,0,0,49.48,14.83A85.66,85.66,0,0,0,787.16,691l90-1.23c41.66,12.09,75.12,10.83,95.51,8.28,29.3-3.67,40.3-11,45.23-15,17-14,23.19-35.89,27.57-57.77C1054.47,580.31,1040,511.63,986.77,465.57Z"/><path d="M748.31,701.3a88.7,88.7,0,0,1-48.45-14.84h-.19a88.49,88.49,0,0,1-60.41-29.94c-40.41-31-67.74-47.14-81.21-47.77-7.81-.38-15.58-1-23.13-1.75A14.22,14.22,0,0,1,523,597.84a13.7,13.7,0,0,1,2.71-14.4l.13-.14c11.58-12.6,28-20.41,48.66-23.24,17.89-2.44,35.84-.63,48,1.38A307.58,307.58,0,0,1,629,531.13c6.38-23.86,30.11-46.53,68.64-65.55,36.41-18,84.37-32.06,138.7-40.74a200,200,0,0,1,56.23-.93c36.6,4.49,68.47,18.32,94.75,41a178.42,178.42,0,0,1,52.94,80.63c8.74,27.28,10.89,55.65,6,79.86-4.1,20.46-10,43.51-27.87,58.25-9.17,7.54-24.1,12.52-45.66,15.22-31.13,3.9-63.34,1.12-95.72-8.27l-89.7,1.23a87,87,0,0,1-37.76,9.39C749.17,701.3,748.73,701.3,748.31,701.3Zm-48-16.54.24.15c8.42,5.61,26,15.06,49,14.69a85.44,85.44,0,0,0,37.21-9.3l.17-.09L877.31,689l.12,0c32.21,9.35,64.23,12.12,95.17,8.25,21.23-2.65,35.89-7.51,44.8-14.84,17.48-14.39,23.25-37.12,27.28-57.29,8.9-44.48-5.61-113.17-58.43-158.89-60.06-52-135.17-42.21-149.6-39.73-54.18,8.65-102,22.69-138.24,40.59-38.07,18.8-61.5,41.1-67.76,64.48a305.32,305.32,0,0,0-6.53,31l-.14.84-.84-.14c-24.7-4.21-70-7-96,21.18l-.13.15a12.06,12.06,0,0,0-2.39,12.67,12.56,12.56,0,0,0,10.44,8.07c7.52.78,15.26,1.37,23,1.75,13.83.67,41.49,16.88,82.22,48.17l.13.11a86.76,86.76,0,0,0,59.27,29.42Z"/><path class="cls-7" d="M622.64,561.55c-5.26-15.47-13.27-44.78-14-72.49a221,221,0,0,1,7-61.06,187.8,187.8,0,0,1-18.3-97.51A9.58,9.58,0,0,1,612,323.2l74.14,46.08a179.71,179.71,0,0,1,84.54-2.34l67.24-55a7.7,7.7,0,0,1,12.51,4.84,256.17,256.17,0,0,1-9.3,113.59,105.87,105.87,0,0,1,4,49"/><path d="M621.85,561.82c-3.09-9.07-13.23-41.1-14-72.74a221.61,221.61,0,0,1,7-61,188.62,188.62,0,0,1-18.25-97.65,10.27,10.27,0,0,1,5.66-8.42,10.43,10.43,0,0,1,10.24.45l73.83,45.9A180.6,180.6,0,0,1,770.48,366l66.93-54.76a8.5,8.5,0,0,1,4.06-1.83,8.54,8.54,0,0,1,9.81,7.2A256.79,256.79,0,0,1,842,430.33,106.73,106.73,0,0,1,846,479.44l-1.69-.26a105.15,105.15,0,0,0-4-48.58l-.09-.26.09-.26a255.23,255.23,0,0,0,9.26-113.22,6.88,6.88,0,0,0-1.43-3.28,6.75,6.75,0,0,0-2.89-2.11,6.86,6.86,0,0,0-3.56-.38,7,7,0,0,0-3.26,1.47l-67.56,55.28-.39-.09a179,179,0,0,0-84.15,2.34l-.35.09L611.52,323.9a8.74,8.74,0,0,0-8.59-.38,8.6,8.6,0,0,0-3.3,2.89,8.51,8.51,0,0,0-1.44,4.13,186.88,186.88,0,0,0,18.22,97.1l.13.28-.07.3a219.62,219.62,0,0,0-7,60.82c.78,31.4,10.85,63.23,13.92,72.24Z"/><path class="cls-6" d="M238.92,661.17h-.17a14.8,14.8,0,0,1-9.22-4.34c-3.51-3.37-.48-18.2,10.1-35.4,9,17.47,11.27,32.06,8,35.4C243.31,661.14,238.92,661.17,238.92,661.17Z"/><path d="M238.92,662h-.17a15.6,15.6,0,0,1-9.8-4.57c-4.32-4.15.16-20.5,10-36.48l.78-1.27.69,1.33c8.42,16.31,11.86,32.29,7.8,36.38-4.46,4.49-9,4.59-9.27,4.59Zm.65-38.86c-10.32,17.26-12.2,30.45-9.47,33.07a14,14,0,0,0,8.66,4.1h.15a12.8,12.8,0,0,0,8.08-4.08C249.6,653.59,248.4,640.74,239.57,623.15Z"/><path class="cls-8" d="M1047.79,596.62c8.31,3.83,21.46,11.46,30.3,25.82,20.44,33.2,5.21,81.81-23.21,107.38-20.64,18.57-44.39,21.49-63.08,23.9-11,1.4-61.74,7.73-96.61-23.9-7.06-6.39-23.58-21.39-21.14-39.92,1.26-9.54,7.74-22.27,18.78-25.81,21.17-6.82,33.84,28.15,73.58,32.45,5.72.62,30.24,2.57,49.39-12.91,3.13-2.53,8.31-7.29,14.59-18C1036.84,654.71,1047.75,632,1047.79,596.62Z"/><path class="cls-4" d="M969.82,756c-30.52,0-56.72-8.79-75.21-25.55-7.15-6.49-23.91-21.69-21.4-40.66,1.39-10.53,8.49-23,19.36-26.52,10.66-3.43,19,3.09,29.49,11.33,10.75,8.42,24.14,18.89,44.43,21.09,8.76.95,31,1.6,48.77-12.73,3.24-2.61,8.25-7.3,14.4-17.73,11.27-19.13,17.25-42.86,17.28-68.61v-1.31l1.2.56c13.46,6.22,23.81,15,30.67,26.14,9.63,15.64,12,36,6.81,57.19-4.85,19.68-15.85,38.36-30.19,51.26-20.66,18.59-44.18,21.61-63.08,24l-.45.06A173.44,173.44,0,0,1,969.82,756Zm-71.57-92a16.49,16.49,0,0,0-5.16.83c-10.2,3.28-16.88,15.16-18.21,25.14-2.39,18.09,13.91,32.88,20.87,39.19,22.45,20.34,56.5,28.75,96,23.68l.45-.06c18.67-2.4,41.9-5.38,62.17-23.62,27.5-24.76,43.35-73.38,23.06-106.32-6.47-10.51-16.14-18.89-28.75-24.93-.23,25.54-6.27,49.07-17.51,68.13-6.29,10.67-11.45,15.49-14.79,18.19-18.21,14.73-41,14-50,13.09-20.77-2.24-34.38-12.91-45.29-21.43C912.73,669.42,905.85,664,898.25,664Z"/><path class="cls-4" d="M787.37,691.75a.85.85,0,0,1-.53-.18.83.83,0,0,1-.29-.48.81.81,0,0,1,.07-.55.8.8,0,0,1,.4-.39c.38-.18,38.46-18.21,47.24-52.2a.93.93,0,0,1,.13-.31.92.92,0,0,1,.25-.23,1,1,0,0,1,.32-.12,1,1,0,0,1,.34,0,.85.85,0,0,1,.3.15.78.78,0,0,1,.22.26.75.75,0,0,1,.1.33.79.79,0,0,1,0,.34c-4.69,18.19-17.55,31.72-27.5,39.84a108.58,108.58,0,0,1-20.67,13.44A.73.73,0,0,1,787.37,691.75Z"/><path class="cls-8" d="M770.72,367l67.24-55a7.71,7.71,0,0,1,7.66-1.23,7.86,7.86,0,0,1,3.25,2.38,7.75,7.75,0,0,1,1.6,3.69c1.82,12.67,2.32,25.51,2.44,45.46S846,400.47,841.25,430.5A159.83,159.83,0,0,0,770.72,367Z"/><path class="cls-4" d="M841.71,432.92l-1.19-2a159,159,0,0,0-70.15-63.22l-1.22-.56,68.28-55.87a8.55,8.55,0,0,1,13.88,5.36c1.89,13.22,2.33,26.73,2.45,45.6.08,12.22-2.55,24-5.61,37.66-2,8.88-4.22,18.94-6.09,30.73Zm-69.42-66.17a160.66,160.66,0,0,1,68.47,61.35c1.8-10.87,3.89-20.23,5.74-28.57,3.14-14.1,5.61-25.25,5.55-37.28-.12-18.8-.57-32.25-2.44-45.37a6.88,6.88,0,0,0-4.32-5.4,7,7,0,0,0-3.56-.37,6.83,6.83,0,0,0-3.26,1.47Z"/><path class="cls-4" d="M702.06,687.27a.88.88,0,0,1-.56-.21c-1.57-1.37-5.24-5.14-5.32-10.54a14.12,14.12,0,0,1,3.54-9.15c4.55-5.54,11.26-6,19-6.63a79,79,0,0,0,14.5-2.07c9-2.39,17.6-7.61,25.44-15.5a.85.85,0,0,1,.59-.22.82.82,0,0,1,.82.82.81.81,0,0,1-.22.59c-8,8.11-16.84,13.47-26.2,15.94a79.78,79.78,0,0,1-14.8,2.11c-7.71.56-13.79,1.05-17.88,6a12.6,12.6,0,0,0-3.16,8c.07,4.72,3.37,8.08,4.75,9.3a.86.86,0,0,1,.08,1.19.94.94,0,0,1-.28.21A1.05,1.05,0,0,1,702.06,687.27Z"/><path class="cls-8" d="M726.76,515.24c47.42,0,85.87-29.39,85.87-65.66s-38.45-65.67-85.87-65.67-85.88,29.4-85.88,65.67S679.33,515.24,726.76,515.24Z"/><path class="cls-4" d="M726.76,516.09c-47.82,0-86.72-29.84-86.72-66.51s38.9-66.51,86.72-66.51,86.71,29.84,86.71,66.51S774.57,516.09,726.76,516.09Zm0-131.34c-46.87,0-85,29.08-85,64.83s38.16,64.82,85,64.82,85-29.08,85-64.82S773.62,384.75,726.76,384.75Z"/><path class="cls-9" d="M672,463.05a17.68,17.68,0,1,0-17.67-17.68A17.68,17.68,0,0,0,672,463.05Z"/><path class="cls-4" d="M672,463.89a18.52,18.52,0,1,1,13.1-5.42A18.58,18.58,0,0,1,672,463.89Zm0-35.36a16.83,16.83,0,1,0,11.91,4.93A16.83,16.83,0,0,0,672,428.53Z"/><path class="cls-10" d="M850.23,317.13S810.94,370.44,807,382.79c-2.94,9.23,10.45,4.66,17.4,1.76a1.62,1.62,0,0,1,1-.08,1.56,1.56,0,0,1,.83.46,1.59,1.59,0,0,1,.29,1.8l-4.66,9.84a3.63,3.63,0,0,0-.3,2,3.57,3.57,0,0,0,2.6,2.94,3.49,3.49,0,0,0,2-.07l5.57-1.85a1.57,1.57,0,0,1,.91,0,1.67,1.67,0,0,1,.78.46,1.58,1.58,0,0,1,.4.82,1.54,1.54,0,0,1-.1.9l-2,9.64,9.54,19.09a256.75,256.75,0,0,0,9-113.37Z"/><path d="M841.43,432.74l-10.61-21.21L833,401.42a.88.88,0,0,0,0-.43.81.81,0,0,0-.2-.39.8.8,0,0,0-.81-.21l-5.56,1.86a4.48,4.48,0,0,1-2.54.08,4.41,4.41,0,0,1-3.22-3.64,4.42,4.42,0,0,1,.38-2.51l4.66-9.84a.78.78,0,0,0,.07-.45.77.77,0,0,0-.21-.41.8.8,0,0,0-.4-.23.77.77,0,0,0-.45.05c-9.42,3.93-15.42,4.82-17.83,2.62-1.23-1.13-1.46-3-.68-5.41,3.93-12.35,41.73-63.73,43.34-65.91l1.22-1.65.29,2a257.55,257.55,0,0,1-9,113.75Zm-8.84-21.44,8.47,16.94a255.91,255.91,0,0,0,8.62-108.95c-6.66,9.13-38.41,52.9-41.86,63.75-.57,1.78-.5,3,.21,3.66,1.77,1.62,7.77.53,16-2.93a2.49,2.49,0,0,1,1.45-.13,2.41,2.41,0,0,1,1.27.71,2.51,2.51,0,0,1,.65,1.31,2.4,2.4,0,0,1-.21,1.44l-4.65,9.83a2.7,2.7,0,0,0,.42,3,2.74,2.74,0,0,0,2.89.78l5.56-1.85a2.46,2.46,0,0,1,1.37-.06,2.39,2.39,0,0,1,1.18.68,2.42,2.42,0,0,1,.53,2.56Z"/><path class="cls-8" d="M685.78,369.32c-24.61-15.26-50.14-31.48-74.76-46.74-5.09-3.16-13.28.9-13.35,6.89-.15,12.8-2.25,27,1.68,46.59,2.12,10.57,3.06,16,5.2,23.29a176.58,176.58,0,0,0,11.08,28.34,111.51,111.51,0,0,1,10.1-16.28A120.35,120.35,0,0,1,661.65,380,125.46,125.46,0,0,1,685.78,369.32Z"/><path class="cls-4" d="M615.62,429.57l-.74-1.51a178.24,178.24,0,0,1-11.14-28.47A187.64,187.64,0,0,1,599.48,381c-.3-1.48-.61-3.07-1-4.79-3-15.16-2.49-27.13-2-37.67.15-3.16.28-6.17.32-9.09a8.88,8.88,0,0,1,4.94-7.45,9.65,9.65,0,0,1,9.69-.15c12.31,7.62,25,15.63,37.38,23.37s25.07,15.74,37.39,23.38l1.55,1-1.74.56a123.81,123.81,0,0,0-24,10.59,119.37,119.37,0,0,0-35.66,31.2,111.62,111.62,0,0,0-10,16.16ZM607,322.33a9.11,9.11,0,0,0-4.39,1.16,7.15,7.15,0,0,0-4.07,6c0,3-.17,6-.31,9.15-.48,10.45-1,22.28,2,37.26.34,1.73.65,3.31,1,4.8a185,185,0,0,0,4.23,18.42,176,176,0,0,0,10.29,26.71,113.7,113.7,0,0,1,9.41-14.91,121.33,121.33,0,0,1,36.17-31.66,126.23,126.23,0,0,1,22.59-10.17c-11.84-7.34-24.05-15-35.87-22.44-12.35-7.74-25.06-15.72-37.36-23.37A6.88,6.88,0,0,0,607,322.33Z"/><path class="cls-10" d="M597.67,328.35s42.31,37,47.54,46.7c.31.56,1.62,3.15.65,4.33-1.85,2.24-9.77-3.41-13.39-.52a3.77,3.77,0,0,0-.91,1.08,4.49,4.49,0,0,0,.42,4.87c1.21,1.61,2.8,4.19,2.65,6.65a3.52,3.52,0,0,1-.64,2c-1.09,1.33-3.1,1.34-3.66,1.34-3.67,0-5.66-3.54-5.75-3.71a2.6,2.6,0,0,0-3.37.08,2,2,0,0,0-.52,1.12,5,5,0,0,0,.46,2.84c1.21,2.46-.21,10.41-1,14a52.55,52.55,0,0,1-6.18,15.15,191.33,191.33,0,0,1-15.15-49.95,183.54,183.54,0,0,1-2-35.21C597,334.75,597.39,331,597.67,328.35Z"/><path d="M614,425.16h-.05a.76.76,0,0,1-.43-.14,1,1,0,0,1-.29-.35A190.61,190.61,0,0,1,598,374.5a184.3,184.3,0,0,1-2-35.36c.17-3.62.45-7.29.84-10.86a.9.9,0,0,1,.16-.43.85.85,0,0,1,.37-.28.77.77,0,0,1,.45-.05.79.79,0,0,1,.41.2c1.73,1.51,42.48,37.22,47.71,46.93.56,1.08,1.81,3.76.56,5.27s-3.52.75-6.21,0-5.68-1.69-7.29-.36a2.65,2.65,0,0,0-.7.83,3.63,3.63,0,0,0,.36,3.93c1.36,1.82,3,4.54,2.8,7.2a4.37,4.37,0,0,1-.83,2.52,5.3,5.3,0,0,1-4.3,1.65c-3.78,0-5.94-3.22-6.4-4a1.77,1.77,0,0,0-2.11.12,1.27,1.27,0,0,0-.29.67,4.07,4.07,0,0,0,.39,2.33c1.59,3.21-.71,13.41-1,14.56a53.34,53.34,0,0,1-6.27,15.39.86.86,0,0,1-.29.31A.78.78,0,0,1,614,425.16Zm-15.61-95.1c-.31,3-.52,6.1-.66,9.14a181.77,181.77,0,0,0,1.94,35A188.88,188.88,0,0,0,614,422.51,51.66,51.66,0,0,0,619.3,409c1-4.29,2.11-11.4,1.12-13.43a5.78,5.78,0,0,1-.56-3.37,2.81,2.81,0,0,1,.78-1.61,3.45,3.45,0,0,1,4.49-.1.68.68,0,0,1,.18.23s1.8,3.26,5,3.26a3.73,3.73,0,0,0,3-1,2.68,2.68,0,0,0,.46-1.55c.11-2.15-1.29-4.49-2.49-6.1a5.29,5.29,0,0,1-.47-5.79,4.43,4.43,0,0,1,1.12-1.32c2.32-1.85,5.78-.84,8.83.06,1.76.52,3.93,1.16,4.45.56.37-.45,0-1.9-.75-3.36C639.86,366.92,605.31,336.21,598.34,330.06Z"/><path d="M672,458a12.63,12.63,0,1,0-12.62-12.63A12.63,12.63,0,0,0,672,458Z"/><path class="cls-4" d="M672,458.84a13.47,13.47,0,1,1,9.53-3.95A13.48,13.48,0,0,1,672,458.84Zm0-25.26a11.81,11.81,0,0,0-11.56,14.09,11.79,11.79,0,0,0,16.07,8.59A11.79,11.79,0,0,0,672,433.58Z"/><path class="cls-9" d="M785.41,463.05a17.68,17.68,0,1,0-17.68-17.68A17.68,17.68,0,0,0,785.41,463.05Z"/><path class="cls-4" d="M785.4,463.89a18.52,18.52,0,1,1,13.1-5.42A18.52,18.52,0,0,1,785.4,463.89Zm0-35.36a16.83,16.83,0,1,0,11.91,4.93A16.83,16.83,0,0,0,785.4,428.53Z"/><path d="M785.41,458a12.63,12.63,0,1,0-12.63-12.63A12.63,12.63,0,0,0,785.41,458Z"/><path class="cls-4" d="M785.41,458.84a13.49,13.49,0,1,1,9.52-3.95A13.49,13.49,0,0,1,785.41,458.84Zm0-25.26a11.78,11.78,0,1,0,8.33,3.45A11.74,11.74,0,0,0,785.41,433.58Z"/><path class="cls-10" d="M722.69,448.81l5.75.77,5.27-.75a1.18,1.18,0,0,1,.67.09,1.22,1.22,0,0,1,.51.44,1.26,1.26,0,0,1,.19.65,1.15,1.15,0,0,1-.19.65l-5.1,8a1.7,1.7,0,0,1-.59.54,1.78,1.78,0,0,1-.78.21,1.76,1.76,0,0,1-.79-.18,1.83,1.83,0,0,1-.61-.53l-5.48-8a1.25,1.25,0,0,1-.21-.65,1.28,1.28,0,0,1,.18-.66,1.17,1.17,0,0,1,.51-.45A1.19,1.19,0,0,1,722.69,448.81Z"/><path d="M728.39,460.29a2.51,2.51,0,0,1-1.17-.3,2.47,2.47,0,0,1-.9-.83l-5.48-8a2.09,2.09,0,0,1-.36-1.11,2.06,2.06,0,0,1,1.17-1.89,2.08,2.08,0,0,1,1.15-.18l5.61.75,5.16-.74a2.08,2.08,0,0,1,1.13.17,2,2,0,0,1,.87.75,2,2,0,0,1,0,2.2l-5.1,8a2.39,2.39,0,0,1-.89.84,2.54,2.54,0,0,1-1.18.32Zm-5.87-10.67a.34.34,0,0,0-.17.05.3.3,0,0,0-.12.13.34.34,0,0,0-.07.19.37.37,0,0,0,.07.2l5.48,8a.83.83,0,0,0,.3.26.87.87,0,0,0,.39.1.77.77,0,0,0,.39-.11.75.75,0,0,0,.29-.27l5.1-8a.33.33,0,0,0,.06-.19.36.36,0,0,0-.06-.2.34.34,0,0,0-.16-.13.34.34,0,0,0-.2,0l-5.38.77-5.87-.78Z"/><path d="M720.05,469c-.56,0-1.17,0-1.8-.09a.9.9,0,0,1-.57-.31.87.87,0,0,1-.19-.62.9.9,0,0,1,.31-.57.87.87,0,0,1,.62-.19c3.29.33,5.7-.29,7.16-1.84,2.14-2.24,1.61-5.81,1.6-5.85a.84.84,0,0,1,.16-.63.87.87,0,0,1,.55-.34.85.85,0,0,1,.64.16.87.87,0,0,1,.34.56c0,.17.66,4.4-2,7.26C725.27,468.21,723,469,720.05,469Z"/><path d="M736.46,469.59c-2.94,0-5.2-.82-6.73-2.45-2.7-2.86-2.07-7.09-2-7.26a.87.87,0,0,1,.34-.56.88.88,0,0,1,.63-.16.87.87,0,0,1,.56.34.9.9,0,0,1,.16.64c0,.06-.52,3.62,1.6,5.85,1.47,1.55,3.87,2.16,7.16,1.83a.88.88,0,0,1,.62.19.85.85,0,0,1,.3.57.81.81,0,0,1-.18.62.84.84,0,0,1-.57.31C737.64,469.56,737,469.59,736.46,469.59Z"/><path class="cls-7" d="M845.74,451.26l39.57-12.06Z"/><path d="M845.74,452.1a.84.84,0,0,1-.25-1.64l39.57-12.07a.83.83,0,0,1,1,.57.83.83,0,0,1,0,.62.9.9,0,0,1-.46.42L846,452.06A.73.73,0,0,1,845.74,452.1Z"/><path class="cls-7" d="M847.14,460l37.32,5.89Z"/><path d="M884.46,466.7h-.12L847,460.8a.82.82,0,0,1-.55-.33.86.86,0,0,1-.16-.64.83.83,0,0,1,.34-.55.84.84,0,0,1,.63-.16L884.59,465a.86.86,0,0,1,.58.29.83.83,0,0,1,.2.62.88.88,0,0,1-.29.58A.91.91,0,0,1,884.46,466.7Z"/><path class="cls-7" d="M609.74,460l-34,7.58Z"/><path d="M575.78,468.38a.86.86,0,0,1-.62-.18A.85.85,0,0,1,575,467a.8.8,0,0,1,.57-.31l33.95-7.58a.88.88,0,0,1,.61.13.84.84,0,0,1,.34.52.82.82,0,0,1-.09.61.85.85,0,0,1-.49.38L576,468.33A.67.67,0,0,1,575.78,468.38Z"/><path class="cls-7" d="M611.14,450.7l-37.32-5.89Z"/><path d="M611.14,451.54H611l-37.32-5.89a1.21,1.21,0,0,1-.32-.11,1,1,0,0,1-.24-.23.83.83,0,0,1-.14-.3.92.92,0,0,1,0-.33.84.84,0,0,1,.12-.31.88.88,0,0,1,.22-.25.83.83,0,0,1,.3-.14.78.78,0,0,1,.34,0l37.32,5.89a.83.83,0,0,1,.57.29.86.86,0,0,1,.21.61.85.85,0,0,1-.3.58A.81.81,0,0,1,611.14,451.54Z"/><path class="cls-11" d="M190.93,115.92c25,11.43,53.49,37.1,87.39,69.86C330.4,236.1,363,317.36,373.17,348c-3.24,1.51-17-24-20.2-22.45a348.76,348.76,0,0,0-78-125.15c-37.49-38.61-70.15-67.17-96.53-79.7Z"/><path d="M372.85,348.91c-2,0-4.81-3.67-10.47-11.65-3.08-4.36-7.74-10.94-9.1-10.94l-.83.38-.26-.87c-17.63-48.27-43.08-89.08-77.83-124.86-41.53-42.78-72.15-68.05-96.29-79.52l-1.78-.84L191,115l.33.15c23.95,11,51.29,34.92,87.62,70,22.64,21.89,43.93,51.72,63.28,88.71A526.37,526.37,0,0,1,374,347.71l.24.72-.68.31A1.59,1.59,0,0,1,372.85,348.91Zm-19.32-24.26c2,.29,4.8,4,10.22,11.63,2.53,3.57,6.1,8.63,8.06,10.31-5.61-16.42-38.08-106.08-94.07-160.21-36.05-34.81-63.17-58.62-86.84-69.54l-10.36,3.93c24.05,11.92,54.31,37.11,95,79C310.33,235.6,335.85,276.43,353.53,324.65Z"/><path class="cls-11" d="M330,366.32C288.07,331,229.38,288,209.8,280.52c-50.39-19.37-95.12-27.81-124.09-28.1l9.36-9.58c27.5-.12,67.13,7.52,111.69,23C224.63,272.08,293,316.64,342,361.63Z"/><path d="M329.83,367.29l-.39-.32c-40.71-34.37-100-78-119.94-85.67-44.83-17.21-91.13-27.72-123.8-28h-2l11-11.22h1c28.62,0,69.14,8.38,111.29,23.06,17.59,6.12,85.31,49.8,135.55,96l1,.91ZM87.68,251.6c32.72.7,78.27,11.17,122.45,28.13,20.06,7.7,79.24,51.23,120,85.63l10.27-4c-49.15-44.9-117-88.8-134-94.69-42-14.59-82.28-23-110.74-23h-.29Z"/><path class="cls-11" d="M373.75,349c-10-13.41-33.42-54.52-47.09-67.78a335.43,335.43,0,0,0-93.45-63.86l-12.52,4.74a356.75,356.75,0,0,1,102.58,73.71c9.93,10.26,30.55,48.14,38.4,58.37Z"/><path d="M361.4,355.22l-.4-.51c-3.15-4.12-8.18-12.39-14-22-8.63-14.17-18.41-30.23-24.33-36.34a354,354,0,0,0-102.33-73.52l-1.76-.89,14.69-5.55.32.14a335.05,335.05,0,0,1,93.69,64c9.05,8.78,22.41,29.75,33.15,46.59,5.71,9,10.66,16.69,14,21.27l.64.85Zm-138.57-133a355.86,355.86,0,0,1,101,73c6,6.24,15.88,22.39,24.55,36.64,5.34,8.76,10.39,17.06,13.52,21.29l10.51-4.49C369,344,364.34,336.62,359,328.16c-10.7-16.78-24-37.66-32.91-46.3a333.19,333.19,0,0,0-92.87-63.58Z"/><path class="cls-8" d="M741.91,656.68,761,699.33a108.41,108.41,0,0,1-28.62-.56s-16.39-1.9-27.27-10.1c-7.57-5.68-7.93-9.68-8-10.88-.44-5.47,3.16-9.33,4.56-10.66l.42-.38c5.05-4.42,14-5,14.59-5.06C722.4,661.34,730.34,659.85,741.91,656.68Z"/><path class="cls-4" d="M748.72,700.86a106.93,106.93,0,0,1-16.48-1.26c-.65-.07-16.7-2-27.65-10.23-5.25-3.93-8.06-7.8-8.35-11.48-.44-5.49,2.81-9.46,4.82-11.34l.44-.4c5-4.37,13.47-5.15,15.09-5.26,6.07-.41,14.28-2.06,25.09-5l.7-.19L762.23,700l-1.12.13A111.5,111.5,0,0,1,748.72,700.86Zm-7.3-43.18c-10.58,2.88-18.68,4.49-24.73,4.89-1,.06-9.42.75-14.09,4.84l-.38.35c-1.79,1.69-4.71,5.21-4.32,10,.25,3.18,2.84,6.64,7.68,10.27,10.58,7.94,26.7,9.9,26.87,9.91a107.4,107.4,0,0,0,27.28.69Z"/><path class="cls-8" d="M570,610.5l17-50.36a87.79,87.79,0,0,0-33.68,6.18A84.14,84.14,0,0,0,532,579.23c-.56.47-8.42,7.22-8.7,13.73v.71c.13,5.48,4.12,9,5.65,10.1l.46.34c4.7,3.32,10.43,2.95,18.88,3.16a90.83,90.83,0,0,1,10.1.56A63.67,63.67,0,0,1,570,610.5Z"/><path class="cls-4" d="M570,611.35a1.17,1.17,0,0,1-.26,0,61.39,61.39,0,0,0-11.5-2.62,91.22,91.22,0,0,0-10-.57c-1.06,0-2.09,0-3.07-.06-6.94-.11-12-.19-16.27-3.25l-.49-.36c-2.17-1.68-5.84-5.26-6-10.77v-.77c.3-6.81,8.11-13.58,9-14.34a86,86,0,0,1,21.61-13,89,89,0,0,1,34-6.23.86.86,0,0,1,.38.1.83.83,0,0,1,.3.26.78.78,0,0,1,.1.76l-17,50.36a.82.82,0,0,1-.31.42A.85.85,0,0,1,570,611.35ZM585.76,561a87.28,87.28,0,0,0-32.13,6.13,83.77,83.77,0,0,0-21.09,12.77c-.33.28-8.14,6.92-8.42,13.12v.64c.12,4.82,3.37,8,5.31,9.49l.43.32c3.9,2.75,8.7,2.81,15.34,2.94,1,0,2,0,3.08.07a93.17,93.17,0,0,1,10.19.56,64.17,64.17,0,0,1,11,2.43L585.82,561Z"/><path class="cls-12" d="M75.6,82.52,59.86,73.93A22.63,22.63,0,0,1,48.18,51.68L49.5,39.22a34.73,34.73,0,0,1,14.91-25,16.67,16.67,0,0,1,8.11-2.84A16.49,16.49,0,0,1,81,13a47.93,47.93,0,0,0,4.65,1.86,131.71,131.71,0,0,1,48.7,30.51l-24.4,44.25Z"/><path d="M110.35,90.56l-35-7.24-.11-.07L59.45,74.67A23.43,23.43,0,0,1,47.37,51.6l1.32-12.47A35.47,35.47,0,0,1,64,13.54a17.42,17.42,0,0,1,17.4-1.31,47.14,47.14,0,0,0,4.56,1.83,132.25,132.25,0,0,1,49,30.71l.46.44ZM75.89,81.72l33.59,6.94,23.79-43.14A130.59,130.59,0,0,0,85.33,15.65a47,47,0,0,1-4.73-1.88A15.77,15.77,0,0,0,64.88,15,33.75,33.75,0,0,0,50.33,39.34L49,51.8A21.76,21.76,0,0,0,60.23,73.23Z"/><path class="cls-12" d="M90.43,67.65l-.38,0a23,23,0,0,0-20.77,18l-1.5,6.8A30,30,0,0,0,86.44,127l46.3,17.62L139.86,94l-32-21.71A27.46,27.46,0,0,0,90.43,67.65Z"/><path d="M133.43,145.82l-47.29-18A30.91,30.91,0,0,1,67,92.26l1.51-6.79A23.68,23.68,0,0,1,90,66.84l.38,0a28.4,28.4,0,0,1,18,4.81l32.43,22ZM90.5,68.49l-.39,0a22,22,0,0,0-20,17.31l-1.5,6.8a29.38,29.38,0,0,0,18.14,33.62l45.31,17.24,6.9-49L107.42,73a26.78,26.78,0,0,0-16.9-4.53Z"/><path class="cls-12" d="M172.53,36.68l-18-23.9A30.1,30.1,0,0,0,124.26,1.43l-5.91,1.24a17.73,17.73,0,0,0-12.83,10.74,17.71,17.71,0,0,0,1.84,16.64l15.16,21.49L170,68.72Z"/><path d="M170.75,69.9,122,52.25,106.67,30.54A18.56,18.56,0,0,1,118.18,1.88L124.1.65a31.08,31.08,0,0,1,31,11.62l18.22,24.14,0,.32Zm-47.7-19.05,46.19,16.71,2.4-30.6L153.8,13.31a29.42,29.42,0,0,0-29.37-11l-5.91,1.24a16.88,16.88,0,0,0-10.47,26.05Z"/><path class="cls-9" d="M133.5,113.85A36.56,36.56,0,1,0,97,77.29,36.56,36.56,0,0,0,133.5,113.85Z"/><path class="cls-4" d="M133.49,114.67a37.37,37.37,0,1,1,21.1-6.5A37.4,37.4,0,0,1,133.49,114.67Zm0-73.07A35.69,35.69,0,1,0,157.69,51,35.64,35.64,0,0,0,133.51,41.6Z"/><path class="cls-12" d="M141.85,36.67l-1.78,13.71a19.16,19.16,0,0,0,3.65,14.49l24.5,31,14.37,37.49a105,105,0,0,0,7.59-15.87A98,98,0,0,0,195,85.19c-1.12-31.7-23.49-56.92-27.22-61a11.92,11.92,0,0,0-6.18-3.93C156.91,19.1,153,21.58,151,22.86,144.3,27.13,142.35,34.45,141.85,36.67Z"/><path d="M182.42,135.28l-14.94-39L143.06,65.41a20,20,0,0,1-3.83-15.16L141,36.47c.8-3.61,3.12-10.26,9.54-14.34,2-1.27,6.17-3.93,11.22-2.74a12.64,12.64,0,0,1,6.62,4.21c6.14,6.76,26.33,31.24,27.43,61.54A100,100,0,0,1,191,117.78a107.66,107.66,0,0,1-7.67,16ZM142.69,36.82,140.9,50.49a18.31,18.31,0,0,0,3.48,13.86L169,95.48l0,.12,13.74,35.84a111.41,111.41,0,0,0,6.65-14.22,97.81,97.81,0,0,0,4.74-32c-1.08-29.75-20.94-53.82-27-60.5a11,11,0,0,0-5.74-3.66c-4.32-1-8,1.28-9.92,2.52C145.59,27.3,143.44,33.46,142.69,36.82Z"/><path class="cls-12" d="M132.12,144.73l-27.73-12.82A23.85,23.85,0,0,1,92.61,100.6l5.76-13a31.42,31.42,0,0,1,39.38-16.84l33.21,12a30.65,30.65,0,0,1,19.91,33.19,40.7,40.7,0,0,1-9.82,19.13c-12.77,13.66-30.93,12.9-34.17,12.75A47.24,47.24,0,0,1,132.12,144.73Z"/><path d="M149,148.7c-.78,0-1.48,0-2.09,0a47.92,47.92,0,0,1-15.05-3.15h-.06l-27.7-12.83a24.81,24.81,0,0,1-12.22-32.43l5.76-13A32.35,32.35,0,0,1,138,70l33.22,12a31.59,31.59,0,0,1,20.48,34.1v.07a41.55,41.55,0,0,1-10,19.52C171,147.05,156.45,148.7,149,148.7ZM132.43,144a46.16,46.16,0,0,0,14.49,3c6.32.27,22.23-.4,33.51-12.48A39.82,39.82,0,0,0,190,115.81a29.91,29.91,0,0,0-19.38-32.25l-33.22-12A30.65,30.65,0,0,0,99.12,88l-5.76,13a23.11,23.11,0,0,0,11.39,30.2Z"/><path class="cls-12" d="M35.29,191.38,33,183.44a22.38,22.38,0,0,1,11.37-26.18,25.15,25.15,0,0,1,26.31,2.24c7.06,2.37,39,13.93,55.45,47.42a90.63,90.63,0,0,1,9.12,37.51,4.57,4.57,0,0,1-.6,2.37,4.63,4.63,0,0,1-6.45,1.67Z"/><path d="M130.61,250a5.53,5.53,0,0,1-2.88-.82L34.57,191.94l-2.39-8.26A23.22,23.22,0,0,1,44,156.52,25.82,25.82,0,0,1,71,158.74c11.79,4,40.47,16.49,55.82,47.8a91,91,0,0,1,9.21,37.86,5.45,5.45,0,0,1-.68,2.82,5.31,5.31,0,0,1-2,2.05A5.46,5.46,0,0,1,130.61,250ZM36,190.83l92.61,56.92a3.75,3.75,0,0,0,1.93.57,3.81,3.81,0,0,0,3.37-1.92,3.93,3.93,0,0,0,.49-2,89.35,89.35,0,0,0-9-37.17c-15.15-30.85-43.49-43.14-55-47l-.13,0-.1-.08A24.19,24.19,0,0,0,44.74,158,21.56,21.56,0,0,0,33.8,183.2Z"/><path class="cls-12" d="M9.14,269.28l9.61,7.15A48.26,48.26,0,0,0,28,281.82a98.9,98.9,0,0,0,12,4.4c8.87,2.6,30.76,9,55.1,0,18.67-6.87,30.27-19.64,36.32-28a3.94,3.94,0,0,0-.83-5.53,4,4,0,0,0-1.92-.73L23,240A18.45,18.45,0,0,0,4.46,250a15.37,15.37,0,0,0,4.68,19.26Z"/><path d="M68.78,291.73a99.63,99.63,0,0,1-29-4.73,98.24,98.24,0,0,1-12.13-4.43,49.7,49.7,0,0,1-9.38-5.48L8.64,270a16.17,16.17,0,0,1-4.92-20.31,19.38,19.38,0,0,1,19.37-10.43l105.66,12a4.75,4.75,0,0,1,3.87,2.82,4.72,4.72,0,0,1,.39,2.46,4.86,4.86,0,0,1-.89,2.31c-6.67,9.2-18.45,21.56-36.71,28.28A76.58,76.58,0,0,1,68.78,291.73ZM9.64,268.58l9.62,7.13A46.65,46.65,0,0,0,28.32,281a95.16,95.16,0,0,0,11.92,4.41c9.12,2.68,30.49,8.94,54.58.08,17.86-6.57,29.39-18.69,35.92-27.69a3.14,3.14,0,0,0,.58-1.51,3.11,3.11,0,0,0-.25-1.59,3.15,3.15,0,0,0-1-1.26,3,3,0,0,0-1.5-.57l-105.69-12a17.67,17.67,0,0,0-17.66,9.54,14.49,14.49,0,0,0,4.42,18.16Z"/><path class="cls-12" d="M1.43,212.45A35.9,35.9,0,0,0,19.9,236l32.23,16.58c2.16.85,5.32,2,9.19,3.27a148.65,148.65,0,0,0,25.25,5.83c15.31,1.82,32.19-3,41.78-6.4a7.45,7.45,0,0,0,2.5-1.49,7.6,7.6,0,0,0,1.75-2.34,7.52,7.52,0,0,0,.71-2.83,7.42,7.42,0,0,0-.43-2.88c-5.74-15.88-14.19-25-18.95-29.44-8.8-8.17-19.48-13.62-28-18a176.28,176.28,0,0,0-16.61-7.43l-27.44-7.58a35.84,35.84,0,0,0-27,3.28l-2.76,1.53A22,22,0,0,0,1.43,212.45Z"/><path d="M93.67,263a59.19,59.19,0,0,1-7.17-.4,149.61,149.61,0,0,1-25.44-5.87c-3.11-1-6.22-2.1-9.24-3.28l-.08,0L19.52,236.78A36.63,36.63,0,0,1,.61,212.65,22.93,22.93,0,0,1,11.7,187.39l2.76-1.53a36.45,36.45,0,0,1,27.65-3.33l27.5,7.61A177.94,177.94,0,0,1,86.3,197.6c8.61,4.39,19.32,9.85,28.21,18.1,8.41,7.79,14.85,17.81,19.17,29.77a8.35,8.35,0,0,1-.32,6.36,8.32,8.32,0,0,1-1.94,2.61,8.41,8.41,0,0,1-2.79,1.66C119.38,259.41,106.39,263,93.67,263Zm-41.2-11.11c3,1.17,6,2.25,9.11,3.23a147,147,0,0,0,25.12,5.81c14.53,1.72,30.53-2.51,41.4-6.37a6.59,6.59,0,0,0,4.4-5.9,6.75,6.75,0,0,0-.38-2.56,72.85,72.85,0,0,0-18.74-29.12c-8.71-8.08-19.3-13.47-27.82-17.83a177.44,177.44,0,0,0-16.49-7.37l-27.41-7.57a34.84,34.84,0,0,0-26.38,3.17l-2.75,1.54A21.23,21.23,0,0,0,2.25,212.27a35,35,0,0,0,18,23Z"/><path class="cls-12" d="M206.64,168.61a5.61,5.61,0,0,0-2.42.49,5.79,5.79,0,0,0-2,1.48,5.61,5.61,0,0,0-1.17,2.19,5.72,5.72,0,0,0-.13,2.47c2.25,13.29,8,42.61,15.91,50,10.36,9.66,27,65.31,73.35,53.57,31.81-8.06,22-41.26,12.78-61.3a65.78,65.78,0,0,0-23.51-27.36,128,128,0,0,0-32.86-15.32A145.6,145.6,0,0,0,206.64,168.61Z"/><path d="M277.87,281.28c-28.18,0-43.63-26.43-53.32-43-3.21-5.49-6-10.24-8.26-12.35-7.91-7.37-13.52-34.8-16.17-50.51a6.48,6.48,0,0,1,.15-2.84,6.52,6.52,0,0,1,3.62-4.21,6.47,6.47,0,0,1,2.78-.56,146.28,146.28,0,0,1,40.22,6.28,129,129,0,0,1,33.05,15.42,66.43,66.43,0,0,1,23.81,27.71c6.55,14.16,13,34,6.31,47.93-3.44,7.22-10.05,12.11-19.64,14.53A50.67,50.67,0,0,1,277.87,281.28ZM206.54,169.44a4.94,4.94,0,0,0-2,.46,4.78,4.78,0,0,0-1.65,1.27,4.6,4.6,0,0,0-1,1.84,4.91,4.91,0,0,0-.11,2.09c2.1,12.46,7.83,42.25,15.65,49.54,2.47,2.3,5.16,6.91,8.58,12.75,10.81,18.52,28.92,49.51,64,40.63,9.07-2.3,15.31-6.89,18.52-13.64,6.37-13.35.08-32.65-6.32-46.49a64.61,64.61,0,0,0-23.21-27,127.33,127.33,0,0,0-32.62-15.22,145.21,145.21,0,0,0-39.75-6.22Z"/><path class="cls-11" d="M392.89,341c1.61-.84-15.23-164.17-62.37-227s-58.37-73-58.37-73S271,88.7,291.23,122.37s43.78,89.8,50.51,102.15,31.43,125.16,31.43,125.16Z"/><path d="M372.57,350.86l-.22-1c-.25-1.13-24.75-112.81-31.35-124.94-2.18-4-6.09-12.51-11.06-23.3-10.25-22.3-25.74-56-39.43-78.81-20.1-33.5-19.2-81.36-19.2-81.84l0-1.83,1.36,1.23c.46.41,11.82,10.87,58.48,73.08,24.43,32.55,40.26,91.48,49.23,135.18,10,48.54,13.93,89.8,13.35,92.43a1,1,0,0,1-.17.4,1,1,0,0,1-.31.28h-.06ZM273,43c.08,9.42,1.46,49.73,19,78.91,13.73,22.89,29.25,56.64,39.52,79,4.95,10.76,8.86,19.27,11,23.21,6.45,11.83,28.67,112.44,31.29,124.37l18.38-8.07c.27-4.56-4-45.57-13.4-91.49-8.95-43.49-24.7-102.14-48.92-134.44C292,64,277.22,47.48,273,43Z"/></g></g></svg>