<svg xmlns="http://www.w3.org/2000/svg" xmlns:xlink="http://www.w3.org/1999/xlink" viewBox="0 0 476.51 106.56"><defs><style>.cls-1{fill:url(#Degradado_sin_nombre_60);}.cls-2{fill:url(#Degradado_sin_nombre_61);}</style><linearGradient id="Degradado_sin_nombre_60" x1="50.11" y1="64.69" x2="155.33" y2="64.69" gradientUnits="userSpaceOnUse"><stop offset="0" stop-color="#185a9d"/><stop offset="1" stop-color="#2c866a"/></linearGradient><linearGradient id="Degradado_sin_nombre_61" y1="41.87" x2="105.22" y2="41.87" gradientUnits="userSpaceOnUse"><stop offset="0" stop-color="#2c866a"/><stop offset="1" stop-color="#185a9d"/></linearGradient></defs><g id="Capa_2" data-name="Capa 2"><g id="Capa_1-2" data-name="Capa 1"><polygon class="cls-1" points="155.33 40.36 105.88 89.82 89.13 106.56 71.59 89.02 50.11 67.54 66.86 50.8 88.33 72.27 137.78 22.82 155.33 40.36"/><polygon class="cls-2" points="0 66.2 49.45 16.74 66.2 0 83.73 17.54 105.22 39.02 88.47 55.76 66.99 34.29 17.55 83.73 0 66.2"/><path d="M210.31,37.89H195.46V74.07h-5.65V37.89H175v-5.4h35.35Z"/><path d="M226.17,31.06l18.53,43h-6.23l-12.3-29.46-12.3,29.46h-6.23Z"/><path d="M270.13,53a15,15,0,0,1,5.17,4,9.3,9.3,0,0,1,2,6.09,10.75,10.75,0,0,1-2.08,6.57,13.49,13.49,0,0,1-5.7,4.36,20.42,20.42,0,0,1-8.08,1.55,16.38,16.38,0,0,1-9-2.59,17.55,17.55,0,0,1-6.27-6.74l5.17-2.49a13.37,13.37,0,0,0,4.33,4.66,10.51,10.51,0,0,0,5.95,1.87,14.19,14.19,0,0,0,4.84-.83,8.89,8.89,0,0,0,3.74-2.5,5.9,5.9,0,0,0,1.46-4q0-4.74-9.87-7.42Q247.62,51.49,247.62,44a11.59,11.59,0,0,1,2-6.53,13.49,13.49,0,0,1,5.34-4.67,16.75,16.75,0,0,1,7.55-1.69A16.17,16.17,0,0,1,271,33.29,13.71,13.71,0,0,1,276.43,39l-5,2.32a11.14,11.14,0,0,0-3.71-3.71,10.22,10.22,0,0,0-5.26-1.28,11.17,11.17,0,0,0-4.49.92,8.58,8.58,0,0,0-3.38,2.55,5.92,5.92,0,0,0-1.28,3.78,4.28,4.28,0,0,0,2.37,3.83,31.48,31.48,0,0,0,6.9,2.7A51,51,0,0,1,270.13,53Z"/><path d="M288.84,32.49V74.07h-5.58V32.49Zm17.11,0h6.72L295.85,51.91l16.82,22.16H306L288.84,51.91Z"/><path d="M351.58,37.89H336.73V74.07h-5.65V37.89H316.23v-5.4h35.35Z"/><path d="M381.55,34.15A12.52,12.52,0,0,1,386,38.64a11.88,11.88,0,0,1,1.67,6.15,11.75,11.75,0,0,1-2,6.68,12,12,0,0,1-5.35,4.42l8.73,18.18h-6.24l-8.19-17H363.16v17h-5.64V32.49h17.82A12,12,0,0,1,381.55,34.15ZM374.75,52A7.2,7.2,0,0,0,382,44.79a7.05,7.05,0,0,0-2.11-5.17,6.9,6.9,0,0,0-5.13-2.14H363.16V52Z"/><path d="M410.86,31.06l18.54,43h-6.24l-12.3-29.46L398.57,74.07h-6.24Z"/><path d="M440.09,74.07h-5.64V32.49h5.64Z"/><path d="M476.51,69v5h-28.7V32.49h5.65V69Z"/></g></g></svg>